<svg xmlns="http://www.w3.org/2000/svg" viewBox="0 0 96 96">
  <filter id="s" x="-20%" y="-20%" width="140%" height="140%">
    <feDropShadow dx="0" dy="5" stdDeviation="4" flood-color="#000" flood-opacity=".35"/>
  </filter>
  <g filter="url(#s)">
    <path d="M42 18h12v8H42v-8z" fill="#e8b800"/>
    <path d="M38 26h20l-2 6H40l-2-6z" fill="#f58b1f"/>
    <path d="M36 32h24c0 28-4 40-12 40S36 60 36 32z" fill="#ffd84d"/>
    <path d="M40 36h16v24c0 6-3 10-8 10s-8-4-8-10V36z" fill="#ffe679" opacity=".85"/>
    <ellipse cx="48" cy="52" rx="6" ry="8" fill="#fff8c8" opacity=".75"/>
    <path d="M44 72h8v6h-8v-6z" fill="#e8b800"/>
    <path d="M40 78h16v4H40v-4z" fill="#f58b1f"/>
  </g>
</svg>
