<svg xmlns="http://www.w3.org/2000/svg" viewBox="0 0 96 96">
  <filter id="s" x="-20%" y="-20%" width="140%" height="140%">
    <feDropShadow dx="0" dy="5" stdDeviation="4" flood-color="#000" flood-opacity=".35"/>
  </filter>
  <g filter="url(#s)">
    <circle cx="48" cy="48" r="34" fill="#e8b800"/>
    <circle cx="48" cy="48" r="34" fill="none" stroke="#c98f00" stroke-width="3"/>
    <circle cx="48" cy="48" r="26" fill="#ffd84d"/>
    <circle cx="48" cy="48" r="26" fill="none" stroke="#f0c200" stroke-width="2"/>
    <path d="M48 30c2 0 3 1 3 3v3h5c2 0 3 1 3 3s-1 3-3 3h-9c-1 0-2 .5-2 2s1 2 2 2h4c4 0 7 3 7 7s-3 7-7 7v3c0 2-1 3-3 3s-3-1-3-3v-3h-5c-2 0-3-1-3-3s1-3 3-3h9c1 0 2-.5 2-2s-1-2-2-2h-4c-4 0-7-3-7-7s3-7 7-7v-3c0-2 1-3 3-3z" fill="#c98f00"/>
    <ellipse cx="38" cy="36" rx="7" ry="10" fill="#fff8c8" opacity=".7" transform="rotate(-35 38 36)"/>
    <circle cx="64" cy="62" r="3" fill="#fff8c8" opacity=".7"/>
  </g>
</svg>
